<?xml version="1.0" encoding="UTF-8" standalone="no"?>
<!-- Generated by IcoMoon.io -->

<svg
   xmlns:dc="http://purl.org/dc/elements/1.1/"
   xmlns:cc="http://creativecommons.org/ns#"
   xmlns:rdf="http://www.w3.org/1999/02/22-rdf-syntax-ns#"
   xmlns:svg="http://www.w3.org/2000/svg"
   xmlns="http://www.w3.org/2000/svg"
   xmlns:sodipodi="http://sodipodi.sourceforge.net/DTD/sodipodi-0.dtd"
   xmlns:inkscape="http://www.inkscape.org/namespaces/inkscape"
   version="1.1"
   width="32"
   height="32"
   viewBox="0 0 32 32"
   id="svg2"
   inkscape:version="0.48.4 r9939"
   sodipodi:docname="eye.svg">
  <metadata
     id="metadata12">
    <rdf:RDF>
      <cc:Work
         rdf:about="">
        <dc:format>image/svg+xml</dc:format>
        <dc:type
           rdf:resource="http://purl.org/dc/dcmitype/StillImage" />
      </cc:Work>
    </rdf:RDF>
  </metadata>
  <defs
     id="defs10" />
  <sodipodi:namedview
     pagecolor="#ffffff"
     bordercolor="#666666"
     borderopacity="1"
     objecttolerance="10"
     gridtolerance="10"
     guidetolerance="10"
     inkscape:pageopacity="0"
     inkscape:pageshadow="2"
     inkscape:window-width="753"
     inkscape:window-height="480"
     id="namedview8"
     showgrid="false"
     inkscape:zoom="7.375"
     inkscape:cx="16"
     inkscape:cy="16"
     inkscape:window-x="0"
     inkscape:window-y="24"
     inkscape:window-maximized="0"
     inkscape:current-layer="svg2" />
  <g
     id="g4"
     transform="translate(0,-4)" />
  <path
     d="M 16,6 C 9.457,6 3.649,9.142 0,14 c 3.649,4.858 9.457,8 16,8 6.543,0 12.351,-3.142 16,-8 C 28.351,9.142 22.543,6 16,6 z m -2,4 c 1.105,0 2,0.895 2,2 0,1.105 -0.895,2 -2,2 -1.105,0 -2,-0.895 -2,-2 0,-1.105 0.895,-2 2,-2 z m 10.175,8.041 C 22.936,18.674 21.623,19.162 20.274,19.49 18.884,19.829 17.446,20 16,20 14.554,20 13.116,19.828 11.726,19.49 10.376,19.161 9.064,18.674 7.825,18.041 5.856,17.035 4.068,15.653 2.586,14 4.068,12.347 5.855,10.966 7.825,9.959 8.836,9.443 9.895,9.023 10.984,8.708 10.363,9.653 10.001,10.784 10.001,12 c 0,3.314 2.686,6 6,6 3.314,0 6,-2.686 6,-6 0,-1.216 -0.362,-2.347 -0.983,-3.292 1.089,0.316 2.148,0.735 3.159,1.251 1.969,1.006 3.757,2.388 5.239,4.041 -1.482,1.653 -3.269,3.034 -5.239,4.041 z M 26.904,3.616 C 23.506,1.88 19.838,1 16,1 12.162,1 8.494,1.88 5.096,3.616 3.259,4.554 1.542,5.738 0,7.118 v 3.413 C 1.729,8.701 3.772,7.164 6.006,6.022 9.119,4.431 12.482,3.625 16,3.625 c 3.518,0 6.881,0.807 9.994,2.397 2.234,1.142 4.277,2.679 6.006,4.509 V 7.118 C 30.458,5.738 28.74,4.554 26.904,3.616 z"
     id="path6"
     style="fill:#ffffff;fill-opacity:1"
     inkscape:connector-curvature="0" />
</svg>
