<?xml version="1.0" encoding="utf-8"?>
<!-- Generator: Adobe Illustrator 15.0.0, SVG Export Plug-In . SVG Version: 6.00 Build 0)  -->
<!DOCTYPE svg PUBLIC "-//W3C//DTD SVG 1.1//EN" "http://www.w3.org/Graphics/SVG/1.1/DTD/svg11.dtd">
<svg version="1.1" id="Layer_1" xmlns="http://www.w3.org/2000/svg" xmlns:xlink="http://www.w3.org/1999/xlink" x="0px" y="0px"
	 width="1417.32px" height="311.81px" viewBox="0 0 1417.32 311.81" enable-background="new 0 0 1417.32 311.81"
	 xml:space="preserve">
<path fill="#FFFFFF" d="M1341.56,113.772V27.599h-32.314c-6.062,0-11.175-2.069-15.311-6.232c-4.165-4.253-6.234-9.366-6.234-15.31
	h129.263c0,6.06-2.128,11.173-6.406,15.31c-4.253,4.163-9.307,6.232-15.139,6.232h-32.316v86.173H1341.56L1341.56,113.772z
	 M1.46,113.772V92.23h107.718V27.599H1.46V6.057h107.718c5.946,0,11.001,2.125,15.138,6.404c4.28,4.253,6.405,9.307,6.405,15.138
	V92.23c0,6.06-2.125,11.173-6.405,15.31c-4.251,4.163-9.307,6.232-15.138,6.232H1.46L1.46,113.772z M197.25,113.772
	c-6.062,0-11.174-2.069-15.31-6.232c-4.166-4.253-6.234-9.366-6.234-15.31h129.261c0,6.06-2.125,11.173-6.405,15.31
	c-4.251,4.163-9.307,6.232-15.138,6.232H197.25L197.25,113.772z M197.25,70.686c-6.062,0-11.174-2.069-15.31-6.232
	c-4.166-4.253-6.234-9.366-6.234-15.31h129.261c0,6.06-2.125,11.172-6.405,15.31c-4.251,4.163-9.307,6.232-15.138,6.232H197.25
	L197.25,70.686z M197.25,27.599c-6.062,0-11.174-2.069-15.31-6.232c-4.166-4.253-6.234-9.366-6.234-15.31h129.261
	c0,6.06-2.125,11.173-6.405,15.31c-4.251,4.163-9.307,6.232-15.138,6.232H197.25L197.25,27.599z M371.494,113.772
	c-6.061,0-11.174-2.069-15.31-6.232c-4.166-4.253-6.234-9.366-6.234-15.31h129.261c0,6.06-2.125,11.173-6.405,15.31
	c-4.252,4.163-9.307,6.232-15.138,6.232H371.494L371.494,113.772z M371.494,70.686c-6.061,0-11.174-2.069-15.31-6.232
	c-4.166-4.253-6.234-9.366-6.234-15.31h129.261c0,6.06-2.125,11.172-6.405,15.31c-4.252,4.163-9.307,6.232-15.138,6.232H371.494
	L371.494,70.686z M371.494,27.599c-6.061,0-11.174-2.069-15.31-6.232c-4.166-4.253-6.234-9.366-6.234-15.31h129.261
	c0,6.06-2.125,11.173-6.405,15.31c-4.252,4.163-9.307,6.232-15.138,6.232H371.494L371.494,27.599z M524.194,113.772V6.057h107.718
	c5.945,0,11.002,2.125,15.138,6.404c4.28,4.253,6.405,9.307,6.405,15.138v21.545c0,6.06-2.125,11.172-6.405,15.31
	c-4.251,4.163-9.307,6.232-15.138,6.232h-43.087c-6.061,0-11.174-2.069-15.31-6.232c-4.166-4.253-6.234-9.366-6.234-15.31h64.631
	V27.599h-86.173v86.173H524.194L524.194,113.772z M719.982,113.772c-6.061,0-11.173-2.069-15.309-6.232
	c-4.166-4.253-6.235-9.366-6.235-15.31V27.599c0-5.944,2.069-11,6.235-15.138c4.25-4.278,9.364-6.404,15.309-6.404h86.176
	c5.944,0,11,2.125,15.136,6.404c4.28,4.253,6.406,9.307,6.406,15.138H719.982V92.23h86.176V70.686h-21.545V49.144h21.545
	c5.944,0,11,2.125,15.136,6.404c4.28,4.253,6.406,9.307,6.406,15.138V92.23c0,6.06-2.126,11.173-6.406,15.31
	c-4.251,4.163-9.308,6.232-15.136,6.232H719.982L719.982,113.772z M872.684,113.772V6.057h21.545V92.23h107.717
	c0,6.06-2.125,11.173-6.406,15.31c-4.25,4.163-9.307,6.232-15.138,6.232H872.684L872.684,113.772z M1046.93,113.772V6.057
	c5.943,0,11,2.125,15.138,6.404c4.278,4.253,6.403,9.307,6.403,15.138v86.173H1046.93L1046.93,113.772z M1134.999,113.772
	c-6.06,0-11.173-2.069-15.31-6.232c-4.166-4.253-6.232-9.366-6.232-15.31V27.599c0-5.944,2.066-11,6.232-15.138
	c4.25-4.278,9.365-6.404,15.31-6.404h10.772l75.4,75.401V6.057c5.947,0,11.004,2.125,15.139,6.404
	c4.281,4.253,6.406,9.307,6.406,15.138V92.23c0,6.06-2.125,11.173-6.406,15.31c-4.25,4.163-9.307,6.232-15.139,6.232h-10.77
	l-75.403-75.401V113.772z"/>
<path fill="#FFFFFF" d="M1288.707,209.211v94.215h-37.844V200.451h26.217l0,0l0,0h0.002l0,0h0.006h0.002h0.003h0.007h0.006h0.005
	h0.008h0.011h0.01h0.01h0.014h0.013h0.015h0.019h0.018h0.021h0.021h0.022h0.025h0.028h0.028h0.031h0.033h0.033h0.038h0.039h0.041
	h0.043h0.047h0.049h0.054h0.054h0.057h0.059h0.062h0.066h0.066h0.072h0.074h0.077h0.079h0.085h0.087h0.09h0.096h0.098h0.1h0.105
	h0.107h0.113h0.115h0.121h0.123h0.128h0.134h0.133h0.142h0.146h0.149C1283.745,200.451,1288.707,201.599,1288.707,209.211
	L1288.707,209.211z M460.28,248.934c-3.474,0-6.505-1.114-8.873-3.332c-2.403-2.248-3.614-5.008-3.614-8.185h14.363h42.543h48.358
	v-7.97h-60.844h-28.871h-3.062c-3.475,0-6.504-1.119-8.873-3.348c-2.403-2.258-3.614-5.027-3.614-8.221h15.549h41.357h48.358v-7.431
	H494.85c-0.846,0.167-1.761,0.249-2.636,0.249H460.28c-3.478,0-6.504-1.142-8.873-3.416c-2.405-2.31-3.614-5.139-3.614-8.398h14.363
	h42.543h42.54h10.946c4.972,0.48,9.076,2.292,9.076,8.183v41.894H462.156v-0.025H460.28L460.28,248.934z M53.521,220.882
	c-3.513,0-6.485-1.058-8.873-3.208c-2.422-2.182-3.612-4.823-3.612-7.885H69.7v-12.475h14.204v12.475h14.037
	c0,3.121-1.241,5.747-3.713,7.885s-5.395,3.208-8.774,3.208h-1.55v24.759l13.598,11.028l-2.977,12.618l-10.621-8.942v45.725H69.7
	v-85.188H53.521L53.521,220.882z M478.394,272.608l-21.295-16.812l-13.598,4.729l20.687,16.81L478.394,272.608L478.394,272.608z
	 M44.298,298.695l10.646,0.455l8.302-73.314l-11.228-0.08L44.298,298.695L44.298,298.695z M114.052,231.451l12.438-5.785
	l10.672,5.475l17.104-8.61v-10.514h-32.493l-6.787,13.868h-12.506l10.277-25.434h46.308h0.001l0,0h0.001h0.001h0.001h0.002h0.003
	h0.001h0.005h0.001h0.006l0,0h0.005h0.005h0.004h0.008h0.009h0.005h0.005h0.009h0.001h0.009h0.009h0.001h0.01h0.009h0.001h0.01
	h0.009h0.003h0.007h0.009h0.009h0.008h0.008h0.006h0.005h0.001h0.005h0.004h0.004h0.001l0,0h0.017h0.032h0.036h0.04h0.041h0.045
	h0.049h0.051h0.054h0.059h0.062h0.065h0.068h0.073h0.077h0.081h0.083h0.09h0.092h0.099h0.107h0.113
	c2.373,0.008,8.925,0.221,8.925,6.127v8.703v0.003v0.005v0.011v0.01v0.019v0.018v0.023v0.028v0.028v0.033v0.038v0.039v0.043v0.047
	v0.048v0.055v0.057v0.059v0.062v0.064v0.066v0.072v0.074v0.077v0.079v0.082v0.085v0.087v0.09v0.093v0.095v0.101v0.1v0.105v0.105
	v0.107v0.11v0.113v0.115v0.118v0.118v0.123v0.126v0.126v0.128v0.131v0.134v0.133v0.137v0.139v0.141v0.144v0.145v0.146v0.149v0.148
	v0.151v0.154v0.154v0.156v0.159v0.159v0.159v0.164v0.162c-0.012,3.383-0.452,5.402-6.635,8.572l-0.004,0.003l-14.268,7.061
	l23.884,12.248l-11.833,5.783l-23.973-12.133l-24.517,12.133l-11.227-5.783l24.208-12.188L114.052,231.451L114.052,231.451z
	 M104.012,298.867v-30.258c0-7.013,6.295-7.207,9.527-7.213h2.802h0.05h41.699h0.052h2.8c2.51,0.006,6.869,0.124,8.689,3.463v37.758
	c-1.619,2.97-5.245,3.394-7.793,3.452h-49.194C109.271,305.99,104.012,305.279,104.012,298.867L104.012,298.867z M118.794,294.504
	h36.054v-21.542h-36.054V294.504L118.794,294.504z M537.088,272.608l21.293-16.812l13.598,4.729l-20.687,16.81L537.088,272.608
	L537.088,272.608z M453.707,306.049l-10.041-7.893l56.765-23.51v-18.334h15.364v18.334l56.764,23.51l-10.645,7.893l-53.789-21.944
	L453.707,306.049L453.707,306.049z M849.473,209.394l4.718-12.079l21.873,13.65l-5.323,11.565L849.473,209.394L849.473,209.394z
	 M846.496,240.91l5.322-11.568l21.899,13.652l-5.323,12.084L846.496,240.91L846.496,240.91z M860.119,306.049l-14.203-2.623
	l14.783-40.977l14.179,3.139L860.119,306.049L860.119,306.049z M916.884,220.423l10.646,6.837l-28.987,18.381l-10.066-6.838
	L916.884,220.423L916.884,220.423z M964.188,245.641l-28.382-18.381l11.229-6.837l27.8,18.38L964.188,245.641L964.188,245.641z
	 M886.13,301.855l12.413,4.193l15.168-39.922h10.262v39.922h14.784v-39.922h10.265l15.166,39.922l12.412-4.193l-13.402-35.729
	h12.822v-11.565h-37.263v-11.567h-14.784v11.567h-36.076v11.565h11.64L886.13,301.855L886.13,301.855z M887.896,222.507h14.783
	v-12.059h57.37v11.543h14.784V207.81c0-6.878-5.708-8.575-9.843-8.927h-4.158h-3.227h-56.308c-12.697,0-13.402,5.493-13.402,11.247
	V222.507L887.896,222.507z M1298.167,202.043h30.148l-0.58-4.729l15.364-2.109l1.188,6.838h30.728v10.513h-10.875l-2.723,5.76
	h15.967v10.513h-82.749v-10.513H1310l-3.266-5.76h-8.567V202.043L1298.167,202.043z M1348.762,212.556h-26.627l3.229,5.76h20.688
	L1348.762,212.556L1348.762,212.556z M1294.612,295.557h34.286v-4.728h-31.917v-9.977h31.917v-5.268h-31.917v-33.803
	c0-7.764,6.94-8.213,11.725-8.224h53.902c7.688,0,11.827,2.562,11.827,8.318v33.708H1343.1v5.268h31.336v9.977H1343.1v4.728h34.285
	v10.513h-82.772V295.557L1294.612,295.557z M1328.898,265.075v-5.246h-17.713v5.246H1328.898L1328.898,265.075z M1343.1,259.829
	v5.246h16.553v-5.246H1343.1L1343.1,259.829z M1343.1,244.069v4.73h16.553v-4.73H1343.1L1343.1,244.069z M1328.898,248.8v-4.73
	h-17.713v4.73H1328.898L1328.898,248.8z M1273.923,272.426h-8.275v19.972h8.275V272.426L1273.923,272.426z M1265.647,261.396h8.275
	v-19.432h-8.275V261.396L1265.647,261.396z M1265.647,230.42h8.275v-18.38l-8.275-0.023V230.42z"/>
</svg>
