<?xml version="1.0" encoding="UTF-8" standalone="no"?>
<!-- Generated by IcoMoon.io -->

<svg
   xmlns:dc="http://purl.org/dc/elements/1.1/"
   xmlns:cc="http://creativecommons.org/ns#"
   xmlns:rdf="http://www.w3.org/1999/02/22-rdf-syntax-ns#"
   xmlns:svg="http://www.w3.org/2000/svg"
   xmlns="http://www.w3.org/2000/svg"
   xmlns:sodipodi="http://sodipodi.sourceforge.net/DTD/sodipodi-0.dtd"
   xmlns:inkscape="http://www.inkscape.org/namespaces/inkscape"
   version="1.1"
   width="32"
   height="32"
   viewBox="0 0 32 32"
   id="svg2"
   inkscape:version="0.48.4 r9939"
   sodipodi:docname="support2.svg">
  <metadata
     id="metadata12">
    <rdf:RDF>
      <cc:Work
         rdf:about="">
        <dc:format>image/svg+xml</dc:format>
        <dc:type
           rdf:resource="http://purl.org/dc/dcmitype/StillImage" />
      </cc:Work>
    </rdf:RDF>
  </metadata>
  <defs
     id="defs10" />
  <sodipodi:namedview
     pagecolor="#ffffff"
     bordercolor="#666666"
     borderopacity="1"
     objecttolerance="10"
     gridtolerance="10"
     guidetolerance="10"
     inkscape:pageopacity="0"
     inkscape:pageshadow="2"
     inkscape:window-width="753"
     inkscape:window-height="480"
     id="namedview8"
     showgrid="false"
     inkscape:zoom="7.375"
     inkscape:cx="16"
     inkscape:cy="16"
     inkscape:window-x="0"
     inkscape:window-y="24"
     inkscape:window-maximized="0"
     inkscape:current-layer="svg2" />
  <g
     id="g4" />
  <path
     d="m 16.033899,-0.13559322 c -8.2004371,0 -14.8474583,6.61666952 -14.8474583,14.77966122 0,8.162992 6.6470212,14.779661 14.8474583,14.779661 8.200436,0 14.847457,-6.616669 14.847457,-14.779661 0,-8.1629917 -6.647021,-14.77966122 -14.847457,-14.77966122 z M 10.466102,14.644068 c 0,-3.061237 2.492517,-5.5423731 5.567797,-5.5423731 3.075279,0 5.567796,2.4811361 5.567796,5.5423731 0,3.061237 -2.492517,5.542373 -5.567796,5.542373 -3.07528,0 -5.567797,-2.481136 -5.567797,-5.542373 z m 17.572894,4.950263 v 0 l -5.144644,-2.121805 c 0.362835,-0.871077 0.564203,-1.826212 0.564203,-2.828458 0,-1.002246 -0.20044,-1.957381 -0.564203,-2.828458 l 5.144644,-2.1218049 c 0.635657,1.5250769 0.986428,3.1961019 0.986428,4.9502629 0,1.754161 -0.351699,3.425186 -0.986428,4.950263 v 0 z M 21.006869,2.6937882 v 0 0 l -2.131538,5.1211525 c -0.875072,-0.361178 -1.834589,-0.5607034 -2.841432,-0.5607034 -1.006844,0 -1.966361,0.1995254 -2.841433,0.5607034 L 11.060928,2.6937882 C 12.593,2.0619576 14.271691,1.7118644 16.033899,1.7118644 c 1.761279,0 3.440898,0.3500932 4.97297,0.9819238 z M 4.0288009,9.6938051 9.1734449,11.81561 c -0.3628347,0.871077 -0.5642034,1.826212 -0.5642034,2.828458 0,1.002246 0.2004407,1.957381 0.5632755,2.828458 l -5.1446441,2.121805 c -0.6356568,-1.525077 -0.986428,-3.196102 -0.986428,-4.950263 0,-1.754161 0.3516992,-3.425186 0.986428,-4.9502629 z m 7.0321271,16.9005429 2.131538,-5.121153 c 0.875072,0.361178 1.834589,0.561627 2.841433,0.561627 1.006843,0 1.96636,-0.199525 2.841432,-0.561627 l 2.131538,5.121153 c -1.532072,0.63183 -3.210763,0.981923 -4.97297,0.981923 -1.76128,0 -3.440899,-0.350093 -4.972971,-0.981923 z"
     id="path6"
     inkscape:connector-curvature="0"
     style="fill:#ffffff;fill-opacity:1" />
</svg>
