<?xml version="1.0" encoding="UTF-8" standalone="no"?>
<!-- Generated by IcoMoon.io -->

<svg
   xmlns:dc="http://purl.org/dc/elements/1.1/"
   xmlns:cc="http://creativecommons.org/ns#"
   xmlns:rdf="http://www.w3.org/1999/02/22-rdf-syntax-ns#"
   xmlns:svg="http://www.w3.org/2000/svg"
   xmlns="http://www.w3.org/2000/svg"
   xmlns:sodipodi="http://sodipodi.sourceforge.net/DTD/sodipodi-0.dtd"
   xmlns:inkscape="http://www.inkscape.org/namespaces/inkscape"
   version="1.1"
   width="32"
   height="32"
   viewBox="0 0 32 32"
   id="svg2"
   inkscape:version="0.48.4 r9939"
   sodipodi:docname="tools.svg">
  <metadata
     id="metadata12">
    <rdf:RDF>
      <cc:Work
         rdf:about="">
        <dc:format>image/svg+xml</dc:format>
        <dc:type
           rdf:resource="http://purl.org/dc/dcmitype/StillImage" />
      </cc:Work>
    </rdf:RDF>
  </metadata>
  <defs
     id="defs10" />
  <sodipodi:namedview
     pagecolor="#ffffff"
     bordercolor="#666666"
     borderopacity="1"
     objecttolerance="10"
     gridtolerance="10"
     guidetolerance="10"
     inkscape:pageopacity="0"
     inkscape:pageshadow="2"
     inkscape:window-width="753"
     inkscape:window-height="480"
     id="namedview8"
     showgrid="false"
     inkscape:zoom="7.375"
     inkscape:cx="16"
     inkscape:cy="16"
     inkscape:window-x="0"
     inkscape:window-y="24"
     inkscape:window-maximized="0"
     inkscape:current-layer="svg2" />
  <g
     id="g4" />
  <path
     d="m 27.783,3.936 c 0.959,2.313 0.502,5.074 -1.379,6.955 -2.071,2.071 -5.201,2.395 -7.634,1.022 l -1.759,1.921 1.255,1.26 0.75,-0.75 c 0.383,-0.384 1.005,-0.384 1.388,0 l 6.082,6.144 c 0.384,0.383 0.384,1.005 0,1.388 l -2.776,2.776 c -0.383,0.384 -1.005,0.384 -1.388,0 L 16.24,18.508 c -0.384,-0.383 -0.384,-1.005 0,-1.388 l 0.685,-0.685 -1.196,-1.199 -8.411,9.189 c -0.767,0.767 -2.01,0.767 -2.776,0 L 3.848,23.731 c -0.767,-0.767 -0.767,-2.01 0,-2.776 L 13.43,12.93 7.066,6.549 5.056,6.548 2.73,2.808 4.602,0.933 l 3.825,2.341 0.025,1.968 6.438,6.463 1.873,-1.568 c -1.831,-2.496 -1.64,-6.012 0.616,-8.268 1.872,-1.872 4.618,-2.337 6.925,-1.396 L 20.18,4.54 23.651,8.011 27.783,3.936 z M 6.15,21.934 c -0.383,-0.383 -1.004,-0.383 -1.388,0 -0.384,0.384 -0.384,1.005 0,1.389 0.384,0.383 1.005,0.383 1.388,0 0.384,-0.385 0.384,-1.006 0,-1.389 z"
     id="path6"
     style="fill:#ffffff;fill-opacity:1"
     inkscape:connector-curvature="0" />
</svg>
